<?xml version="1.0" encoding="utf-8"?>
<!-- Generator: Adobe Illustrator 19.0.0, SVG Export Plug-In . SVG Version: 6.00 Build 0)  -->
<svg version="1.1" id="Ebene_1" xmlns="http://www.w3.org/2000/svg" xmlns:xlink="http://www.w3.org/1999/xlink" x="0px" y="0px"
	 viewBox="0 0 898.5 186.4" style="enable-background:new 0 0 898.5 186.4;" xml:space="preserve">
<style type="text/css">
	.st0{fill:#FAB807;}
	.st1{clip-path:url(#XMLID_105_);fill-rule:evenodd;clip-rule:evenodd;fill:#0D3D52;}
	.st2{fill:#0D3D52;}
	.st3{clip-path:url(#XMLID_106_);fill:#0D3D52;}
	.st4{clip-path:url(#XMLID_106_);fill-rule:evenodd;clip-rule:evenodd;fill:#0D3D52;}
</style>
<g id="XMLID_2_">
	<polygon id="XMLID_26_" class="st0" points="0,42 0,137.4 74.3,91.1 74.3,42 	"/>
	<polygon id="XMLID_25_" class="st0" points="0,183.8 74.3,183.8 0,137.4 	"/>
	<g id="XMLID_20_">
		<defs>
			<rect id="XMLID_21_" x="0" width="898.5" height="186.4"/>
		</defs>
		<clipPath id="XMLID_105_">
			<use xlink:href="#XMLID_21_"  style="overflow:visible;"/>
		</clipPath>
		<path id="XMLID_22_" class="st1" d="M869.2,70.3h5.9c9.2,0,14.7-4.2,16.2-12.3c1.6-8.4-2.2-12.5-11.5-12.5H874L869.2,70.3z
			 M855.2,107.2l13-68.1h11.4c14.7,0,20.8,6,18.4,18.5c-2.4,12.4-10.8,18.5-25.5,18.5h-4.4l-5.9,31.2H855.2z"/>
	</g>
	<polygon id="XMLID_19_" class="st2" points="454.3,184.2 488.5,184.2 514.6,46.9 480.4,46.9 	"/>
	<polygon id="XMLID_18_" class="st2" points="489.4,0 484.4,26.2 518.6,26.2 523.6,0 	"/>
	<g id="XMLID_3_">
		<defs>
			<rect id="XMLID_4_" x="0" width="898.5" height="186.4"/>
		</defs>
		<clipPath id="XMLID_106_">
			<use xlink:href="#XMLID_4_"  style="overflow:visible;"/>
		</clipPath>
		<path id="XMLID_17_" class="st3" d="M170.5,90.7H204c4.9-32.1-11.9-50.8-42.1-50.8c-36.1,0-59.8,24.1-68.8,71.9
			c-9.1,47.7,5.5,71.7,41.5,71.7c31.7,0,54.5-19,62.4-54.5h-33.6c-4.1,20-12.5,30.3-24.3,30.3c-13.9,0-17.1-15.7-11-47.5
			c6.1-31.8,15.2-47.5,29.1-47.5C167.8,64.3,173.7,73.8,170.5,90.7"/>
		<path id="XMLID_14_" class="st4" d="M286.4,114.7c-27.9,10.8-43.4,22.6-45.8,35.2c-1.6,8.2,3.8,13.9,12.5,13.9
			c7.4,0,16.6-4.6,26.6-13.3L286.4,114.7z M276,184l0.5-12.3c-14.5,9.8-28.1,14.7-42.2,14.7c-22.2,0-32.9-11.9-29.1-31.9
			c5.2-27.2,33.3-47.2,85.2-60.6l1.9-9.8c2.1-11.3-1.7-16.9-13.1-16.9c-12,0-20.7,6.9-24,19.5h-33.9c7.5-26.4,31.8-42.6,63.6-42.6
			c18.5,0,32.3,5.4,38.6,14.4c6.3,9,4.8,20,2.2,33.6l-10.8,57c-2.6,13.6-4.2,25.2-4.8,34.9H276z"/>
		<path id="XMLID_13_" class="st3" d="M329,183.9h34.2l20.2-106c6.8-6.7,14.7-11,24.3-11c7.1,0,9.4,5.4,7.4,16.4l-19.1,100.6h34.5
			l18.9-99.3c5.2-27.5,1.6-41.1-23.3-41.1c-13.6,0-27.3,5.9-42.5,17.5l2.7-14.4h-31.1L329,183.9z"/>
		<path id="XMLID_10_" class="st4" d="M588.8,114.4c-27.9,10.8-43.4,22.6-45.8,35.2c-1.6,8.2,3.8,13.9,12.5,13.9
			c7.4,0,16.6-4.6,26.6-13.3L588.8,114.4z M578.4,183.7l0.5-12.3c-14.5,9.8-28.1,14.7-42.2,14.7c-22.2,0-32.9-11.9-29.1-31.9
			c5.2-27.2,33.3-47.2,85.2-60.6l1.9-9.8c2.1-11.3-1.7-16.9-13.1-16.9c-12,0-20.7,6.9-24,19.5h-33.9c7.5-26.4,31.8-42.6,63.6-42.6
			c18.5,0,32.3,5.4,38.6,14.4c6.3,9,4.8,20,2.2,33.6l-10.8,57c-2.6,13.6-4.2,25.2-4.8,34.9H578.4z"/>
		<path id="XMLID_9_" class="st3" d="M632.1,144.6c1.4,24.9,17.3,38.8,44.4,38.8c29.6,0,52.4-16.2,56.7-38.8
			c2.8-14.6-3.5-25.4-18.9-37c-19.5-14.4-35.1-21.3-32.8-33.4c1.3-6.9,9.1-12.3,18.7-12.3c10.8,0,15.6,5.6,15.4,17.7l29.4-4.1
			c-0.9-22.8-16.3-35.7-41.6-35.7c-27.7,0-49.8,15.4-53.9,37c-2.7,14.4,5.3,25.7,22.5,39c17.8,13.6,31.3,20,29.2,31.3
			c-1.5,8-9.3,13.3-19.5,13.3c-11.1,0-18.6-7.7-19.2-22.1L632.1,144.6z"/>
		<polygon id="XMLID_8_" class="st3" points="755.9,107.6 787.3,107.6 788.5,101.3 764,101.3 769,75.5 786.3,75.5 787.5,69.3 
			770.2,69.3 774.6,45.8 798.3,45.8 799.5,39.5 768.9,39.5 		"/>
		<path id="XMLID_5_" class="st4" d="M817.1,69.5h5.9c9.3,0,14.8-4,16.3-11.9c1.5-8-2.4-11.9-11.8-11.9h-5.9L817.1,69.5z
			 M802.8,107.9l13-68.1h12.4c14.7,0,20.8,5.8,18.5,17.9c-1.6,8.3-6.4,14-13.8,16.3l4.6,33.9H830l-4.1-32.4
			c-2.4,0.1-4.8,0.2-7.3,0.2h-2.7l-6.1,32.2H802.8z"/>
	</g>
</g>
</svg>