<?xml version="1.0" encoding="UTF-8" standalone="no"?>
<!-- Generator: Adobe Illustrator 14.0.0, SVG Export Plug-In . SVG Version: 6.00 Build 43363)  -->

<svg
   xmlns:dc="http://purl.org/dc/elements/1.1/"
   xmlns:cc="http://creativecommons.org/ns#"
   xmlns:rdf="http://www.w3.org/1999/02/22-rdf-syntax-ns#"
   xmlns:svg="http://www.w3.org/2000/svg"
   xmlns="http://www.w3.org/2000/svg"
   xmlns:sodipodi="http://sodipodi.sourceforge.net/DTD/sodipodi-0.dtd"
   xmlns:inkscape="http://www.inkscape.org/namespaces/inkscape"
   version="1.1"
   id="Layer_1"
   x="0px"
   y="0px"
   width="500px"
   height="125px"
   viewBox="-0.64 0.945 3200 900"
   enable-background="new -0.64 0.945 3200 900"
   xml:space="preserve"
   sodipodi:docname="eggbot_6.svg"
   inkscape:version="0.92.4 (5da689c313, 2019-01-14)"><metadata
   id="metadata19"><rdf:RDF><cc:Work
       rdf:about=""><dc:format>image/svg+xml</dc:format><dc:type
         rdf:resource="http://purl.org/dc/dcmitype/StillImage" /></cc:Work></rdf:RDF></metadata><defs
   id="defs17" /><sodipodi:namedview
   pagecolor="#ffffff"
   bordercolor="#666666"
   borderopacity="1"
   objecttolerance="10"
   gridtolerance="10"
   guidetolerance="10"
   inkscape:pageopacity="0"
   inkscape:pageshadow="2"
   inkscape:window-width="1920"
   inkscape:window-height="1001"
   id="namedview15"
   showgrid="false"
   inkscape:zoom="0.42375"
   inkscape:cx="1509.0599"
   inkscape:cy="389.01747"
   inkscape:window-x="-9"
   inkscape:window-y="-9"
   inkscape:window-maximized="1"
   inkscape:current-layer="Layer_1" />
<g
   id="g6">
	<polyline
   fill="none"
   stroke="#040105"
   stroke-width="20"
   points="3199.359,246.025 3105.242,66.025 3011.125,246.025    2917.006,66.025 2822.888,246.025 2728.771,66.025 2634.654,246.025 2540.535,66.025 2446.418,246.025 2352.301,66.025    2258.183,246.025 2164.064,66.025 2069.947,246.025 1975.83,66.025 1881.713,246.025 1787.595,66.025 1693.476,246.025    1599.359,66.025 1505.241,246.025 1411.124,66.025 1317.007,246.025 1222.888,66.025 1128.772,246.025 1034.653,66.025    940.535,246.025 846.419,66.025 752.301,246.025 658.183,66.025 564.065,246.025 469.948,66.025 375.83,246.025 281.713,66.025    187.595,246.025 93.476,66.025 -0.64,246.025  "
   id="polyline2" />
	<line
   fill="none"
   stroke="#040105"
   stroke-width="20"
   x1="-0.64"
   y1="20.945"
   x2="3199.359"
   y2="20.945"
   id="line4" />
</g>
<g
   id="g12">
	<polyline
   fill="none"
   stroke="#040105"
   stroke-width="20"
   points="-0.641,655.865 93.476,835.865 187.594,655.865 281.713,835.865    375.83,655.865 469.947,835.865 564.064,655.865 658.183,835.865 752.301,655.865 846.418,835.865 940.535,655.865    1034.654,835.865 1128.771,655.865 1222.888,835.865 1317.006,655.865 1411.123,835.865 1505.242,655.865 1599.359,835.865    1693.476,655.865 1787.594,835.865 1881.711,655.865 1975.83,835.865 2069.947,655.865 2164.065,835.865 2258.183,655.865    2352.3,835.865 2446.418,655.865 2540.535,835.865 2634.654,655.865 2728.77,835.865 2822.888,655.865 2917.006,835.865    3011.123,655.865 3105.242,835.865 3199.359,655.865  "
   id="polyline8" />
	<line
   fill="none"
   stroke="#040105"
   stroke-width="20"
   x1="3199.359"
   y1="880.945"
   x2="-0.641"
   y2="880.945"
   id="line10" />
</g>
<eggbot
   totaldeltay="0"
   totaldeltax="0"
   lastpathnc="0"
   lastpath="0"
   node="0"
   layer="0"
   serialport="" /></svg>