<?xml version="1.0" encoding="UTF-8" standalone="no"?>
<!-- Generator: Adobe Illustrator 14.0.0, SVG Export Plug-In . SVG Version: 6.00 Build 43363)  -->

<svg
   xmlns:dc="http://purl.org/dc/elements/1.1/"
   xmlns:cc="http://creativecommons.org/ns#"
   xmlns:rdf="http://www.w3.org/1999/02/22-rdf-syntax-ns#"
   xmlns:svg="http://www.w3.org/2000/svg"
   xmlns="http://www.w3.org/2000/svg"
   xmlns:sodipodi="http://sodipodi.sourceforge.net/DTD/sodipodi-0.dtd"
   xmlns:inkscape="http://www.inkscape.org/namespaces/inkscape"
   version="1.1"
   id="Layer_1"
   x="0px"
   y="0px"
   width="500px"
   height="125px"
   viewBox="-0.64 0.945 3200 900"
   enable-background="new -0.64 0.945 3200 900"
   xml:space="preserve"
   sodipodi:docname="eggbot_8.svg"
   inkscape:version="0.92.4 (5da689c313, 2019-01-14)"><metadata
   id="metadata27"><rdf:RDF><cc:Work
       rdf:about=""><dc:format>image/svg+xml</dc:format><dc:type
         rdf:resource="http://purl.org/dc/dcmitype/StillImage" /></cc:Work></rdf:RDF></metadata><defs
   id="defs25" /><sodipodi:namedview
   pagecolor="#ffffff"
   bordercolor="#666666"
   borderopacity="1"
   objecttolerance="10"
   gridtolerance="10"
   guidetolerance="10"
   inkscape:pageopacity="0"
   inkscape:pageshadow="2"
   inkscape:window-width="946"
   inkscape:window-height="640"
   id="namedview23"
   showgrid="false"
   inkscape:zoom="0.211875"
   inkscape:cx="1173.4031"
   inkscape:cy="668.78279"
   inkscape:window-x="909"
   inkscape:window-y="145"
   inkscape:window-maximized="0"
   inkscape:current-layer="Layer_1" />
<g
   id="g10">
	<g
   id="g6">
		<path
   fill="none"
   stroke="#000000"
   stroke-width="20"
   d="M3199.396,20.945c-72.388,0-135.448,60.745-168.421,150.57    c-32.972-89.826-96.031-150.57-168.423-150.57c-72.388,0-135.451,60.745-168.424,150.57    c-32.971-89.826-96.03-150.57-168.423-150.57c-72.389,0-135.451,60.745-168.424,150.57    c-32.97-89.826-96.031-150.57-168.423-150.57c-72.389,0-135.45,60.745-168.421,150.57    c-32.973-89.826-96.034-150.57-168.425-150.57s-135.45,60.745-168.422,150.57c-32.973-89.826-96.033-150.57-168.425-150.57    c-72.39,0-135.45,60.745-168.422,150.57c-32.971-89.826-96.033-150.57-168.424-150.57c-72.39,0-135.451,60.745-168.42,150.57    c-32.973-89.826-96.034-150.57-168.424-150.57S706.023,81.69,673.052,171.516c-32.971-89.826-96.033-150.57-168.423-150.57    c-72.391,0-135.452,60.745-168.423,150.57c-32.972-89.826-96.033-150.57-168.423-150.57c-72.391,0-135.451,60.745-168.423,150.57"
   id="path2" />
		<path
   fill="none"
   stroke="#000000"
   stroke-width="20"
   d="M3199.359,171.516c-32.972-89.826-96.033-150.57-168.426-150.57    c-72.388,0-135.448,60.745-168.421,150.57c-32.972-89.826-96.031-150.57-168.423-150.57c-72.388,0-135.451,60.745-168.424,150.57    c-32.971-89.826-96.03-150.57-168.423-150.57c-72.389,0-135.451,60.745-168.424,150.57    c-32.97-89.826-96.031-150.57-168.423-150.57c-72.389,0-135.45,60.745-168.421,150.57    c-32.973-89.826-96.034-150.57-168.425-150.57s-135.45,60.745-168.422,150.57c-32.973-89.826-96.033-150.57-168.425-150.57    c-72.39,0-135.45,60.745-168.422,150.57c-32.971-89.826-96.033-150.57-168.424-150.57c-72.39,0-135.451,60.745-168.42,150.57    c-32.973-89.826-96.034-150.57-168.424-150.57S537.56,81.69,504.589,171.516c-32.971-89.826-96.033-150.57-168.423-150.57    c-72.391,0-135.452,60.745-168.423,150.57C134.771,81.69,71.71,20.945-0.68,20.945"
   id="path4" />
	</g>
	<line
   fill="none"
   stroke="#000000"
   stroke-width="20"
   x1="-0.64"
   y1="251.515"
   x2="3199.359"
   y2="251.515"
   id="line8" />
</g>
<g
   id="g20">
	<g
   id="g16">
		<path
   fill="none"
   stroke="#000000"
   stroke-width="20"
   d="M-0.68,880.945c72.388,0,135.448-60.744,168.421-150.57    c32.972,89.826,96.031,150.57,168.423,150.57c72.388,0,135.451-60.744,168.424-150.57c32.971,89.826,96.03,150.57,168.423,150.57    c72.389,0,135.451-60.744,168.424-150.57c32.97,89.826,96.031,150.57,168.423,150.57c72.389,0,135.45-60.744,168.421-150.57    c32.973,89.826,96.034,150.57,168.425,150.57s135.45-60.744,168.422-150.57c32.973,89.826,96.033,150.57,168.425,150.57    c72.39,0,135.45-60.744,168.423-150.57c32.971,89.826,96.032,150.57,168.424,150.57c72.39,0,135.451-60.744,168.42-150.57    c32.973,89.826,96.034,150.57,168.425,150.57s135.452-60.744,168.423-150.57c32.972,89.826,96.033,150.57,168.424,150.57    s135.451-60.744,168.423-150.57c32.972,89.826,96.033,150.57,168.423,150.57c72.391,0,135.451-60.744,168.424-150.57"
   id="path12" />
		<path
   fill="none"
   stroke="#000000"
   stroke-width="20"
   d="M-0.643,730.375c32.972,89.826,96.033,150.57,168.426,150.57    c72.388,0,135.448-60.744,168.421-150.57c32.972,89.826,96.031,150.57,168.423,150.57c72.388,0,135.451-60.744,168.424-150.57    c32.971,89.826,96.03,150.57,168.423,150.57c72.389,0,135.451-60.744,168.424-150.57c32.97,89.826,96.031,150.57,168.423,150.57    c72.389,0,135.45-60.744,168.421-150.57c32.973,89.826,96.034,150.57,168.425,150.57s135.45-60.744,168.422-150.57    c32.973,89.826,96.033,150.57,168.425,150.57c72.39,0,135.45-60.744,168.423-150.57c32.971,89.826,96.032,150.57,168.424,150.57    c72.39,0,135.451-60.744,168.42-150.57c32.973,89.826,96.034,150.57,168.425,150.57s135.452-60.744,168.423-150.57    c32.972,89.826,96.033,150.57,168.424,150.57s135.451-60.744,168.423-150.57c32.972,89.826,96.033,150.57,168.423,150.57"
   id="path14" />
	</g>
	<line
   fill="none"
   stroke="#000000"
   stroke-width="20"
   x1="3199.357"
   y1="650.375"
   x2="-0.643"
   y2="650.375"
   id="line18" />
</g>
<eggbot
   totaldeltay="0"
   totaldeltax="0"
   lastpathnc="0"
   lastpath="0"
   node="0"
   layer="0"
   serialport="" /></svg>