<?xml version="1.0" encoding="UTF-8" standalone="no"?>
<!-- Generator: Adobe Illustrator 14.0.0, SVG Export Plug-In . SVG Version: 6.00 Build 43363)  -->

<svg
   xmlns:dc="http://purl.org/dc/elements/1.1/"
   xmlns:cc="http://creativecommons.org/ns#"
   xmlns:rdf="http://www.w3.org/1999/02/22-rdf-syntax-ns#"
   xmlns:svg="http://www.w3.org/2000/svg"
   xmlns="http://www.w3.org/2000/svg"
   xmlns:sodipodi="http://sodipodi.sourceforge.net/DTD/sodipodi-0.dtd"
   xmlns:inkscape="http://www.inkscape.org/namespaces/inkscape"
   version="1.1"
   id="Layer_1"
   x="0px"
   y="0px"
   width="500px"
   height="125px"
   viewBox="0 0 3200 900"
   enable-background="new 0 0 3200 900"
   xml:space="preserve"
   sodipodi:docname="eggbot_9.svg"
   inkscape:version="0.92.4 (5da689c313, 2019-01-14)"><metadata
   id="metadata15"><rdf:RDF><cc:Work
       rdf:about=""><dc:format>image/svg+xml</dc:format><dc:type
         rdf:resource="http://purl.org/dc/dcmitype/StillImage" /></cc:Work></rdf:RDF></metadata><defs
   id="defs13" /><sodipodi:namedview
   pagecolor="#ffffff"
   bordercolor="#666666"
   borderopacity="1"
   objecttolerance="10"
   gridtolerance="10"
   guidetolerance="10"
   inkscape:pageopacity="0"
   inkscape:pageshadow="2"
   inkscape:window-width="1920"
   inkscape:window-height="1001"
   id="namedview11"
   showgrid="false"
   inkscape:zoom="0.42375"
   inkscape:cx="1489.9071"
   inkscape:cy="426.66337"
   inkscape:window-x="-9"
   inkscape:window-y="-9"
   inkscape:window-maximized="1"
   inkscape:current-layer="Layer_1" />
<polyline
   fill="none"
   stroke="#000000"
   stroke-width="16"
   points="3200,160 3175.001,160 3150.806,127.252 3175.001,62.749   3150.001,30 3125,62.749 3149.195,127.252 3125,160 3075,160 3050.806,127.252 3075,62.749 3050,30 3025.001,62.749   3049.194,127.252 3025.001,160 2975,160 2950.806,127.252 2975,62.749 2950,30 2925,62.749 2949.193,127.252 2925,160 2875.001,160   2850.807,127.252 2875.001,62.749 2850.001,30 2825,62.749 2849.193,127.252 2825,160 2775,160 2750.806,127.252 2775,62.749   2750,30 2725.001,62.749 2749.194,127.252 2725.001,160 2675,160 2650.806,127.252 2675,62.749 2650,30 2625,62.749   2649.193,127.252 2625,160 2575.001,160 2550.806,127.252 2575.001,62.749 2550.001,30 2525,62.749 2549.193,127.252 2525,160   2475,160 2450.806,127.252 2475,62.749 2450.001,30 2425.001,62.749 2449.194,127.252 2425.001,160 2375.001,160 2350.805,127.252   2375.001,62.749 2350,30 2325,62.749 2349.193,127.252 2325,160 2275.001,160 2250.807,127.252 2275.001,62.749 2250.001,30   2225,62.749 2249.194,127.252 2225,160 2175,160 2150.806,127.252 2175,62.749 2150.001,30 2125,62.749 2149.194,127.252 2125,160   2075,160 2050.806,127.252 2075,62.749 2050,30 2025,62.749 2049.194,127.252 2025,160 1975.001,160 1950.807,127.252   1975.001,62.749 1950,30 1925,62.749 1949.193,127.252 1925,160 1875,160 1850.806,127.252 1875,62.749 1850.001,30 1825,62.749   1849.193,127.252 1825,160 1775,160 1750.806,127.252 1775,62.749 1750,30 1725,62.749 1749.194,127.252 1725,160 1675.001,160   1650.807,127.252 1675.001,62.749 1650,30 1625,62.749 1649.193,127.252 1625,160 1575,160 1550.806,127.252 1575,62.749   1550.001,30 1525.001,62.749 1549.194,127.252 1525.001,160 1475.001,160 1450.807,127.252 1475.001,62.749 1450.001,30   1425,62.749 1449.194,127.252 1425,160 1375,160 1350.807,127.252 1375,62.749 1350,30 1325,62.749 1349.194,127.252 1325,160   1275,160 1250.807,127.252 1275,62.749 1250.001,30 1225,62.749 1249.194,127.252 1225,160 1175.001,160 1150.807,127.252   1175.001,62.749 1150.001,30 1125,62.749 1149.194,127.252 1125,160 1075.001,160 1050.807,127.252 1075.001,62.749 1050,30   1025,62.749 1049.194,127.252 1025,160 975,160 950.806,127.252 975,62.749 950.001,30 925,62.749 949.194,127.252 925,160   875.001,160 850.807,127.252 875.001,62.749 850.001,30 825,62.749 849.194,127.252 825,160 775.001,160 750.806,127.252   775.001,62.749 750,30 725,62.749 749.194,127.252 725,160 675.001,160 650.807,127.252 675.001,62.749 650.001,30 625,62.749   649.194,127.252 625,160 575,160 550.807,127.252 575,62.749 550,30 525,62.749 549.194,127.252 525,160 475,160 450.807,127.252   475,62.749 450.001,30 425,62.749 449.194,127.252 425,160 375.001,160 350.807,127.252 375.001,62.749 350,30 325,62.749   349.194,127.252 325,160 275.001,160 250.807,127.252 275.001,62.749 250,30 225,62.749 249.194,127.252 225,160 175,160   150.806,127.252 175,62.749 150.001,30 125,62.749 149.194,127.252 125,160 75.001,160 50.807,127.252 75.001,62.749 50.001,30   25,62.749 49.194,127.252 25,160 0,160 "
   id="polyline2" />
<polyline
   fill="none"
   stroke="#000000"
   stroke-width="16"
   points="0,740 24.999,740 49.193,772.748 24.999,837.252 49.999,870   75,837.252 50.804,772.748 75,740 125,740 149.193,772.748 125,837.252 150,870 174.999,837.252 150.805,772.748 174.999,740   225,740 249.193,772.748 225,837.252 250,870 275,837.252 250.806,772.748 275,740 324.999,740 349.192,772.748 324.999,837.252   349.999,870 375,837.252 350.806,772.748 375,740 425,740 449.193,772.748 425,837.252 450,870 474.999,837.252 450.805,772.748   474.999,740 525,740 549.193,772.748 525,837.252 550,870 575,837.252 550.806,772.748 575,740 624.999,740 649.193,772.748   624.999,837.252 649.999,870 675,837.252 650.806,772.748 675,740 725,740 749.193,772.748 725,837.252 749.999,870   774.999,837.252 750.805,772.748 774.999,740 824.999,740 849.194,772.748 824.999,837.252 850,870 875,837.252 850.806,772.748   875,740 924.999,740 949.192,772.748 924.999,837.252 949.999,870 975,837.252 950.805,772.748 975,740 1025,740 1049.193,772.748   1025,837.252 1049.999,870 1075,837.252 1050.805,772.748 1075,740 1125,740 1149.193,772.748 1125,837.252 1150,870 1175,837.252   1150.805,772.748 1175,740 1224.999,740 1249.192,772.748 1224.999,837.252 1250,870 1275,837.252 1250.806,772.748 1275,740   1325,740 1349.193,772.748 1325,837.252 1349.999,870 1375,837.252 1350.806,772.748 1375,740 1425,740 1449.193,772.748   1425,837.252 1450,870 1475,837.252 1450.805,772.748 1475,740 1524.999,740 1549.192,772.748 1524.999,837.252 1550,870   1575,837.252 1550.806,772.748 1575,740 1625,740 1649.193,772.748 1625,837.252 1649.999,870 1674.999,837.252 1650.805,772.748   1674.999,740 1724.999,740 1749.193,772.748 1724.999,837.252 1749.999,870 1775,837.252 1750.805,772.748 1775,740 1825,740   1849.193,772.748 1825,837.252 1850,870 1875,837.252 1850.805,772.748 1875,740 1925,740 1949.193,772.748 1925,837.252   1949.999,870 1975,837.252 1950.806,772.748 1975,740 2024.999,740 2049.192,772.748 2024.999,837.252 2049.999,870 2075,837.252   2050.805,772.748 2075,740 2124.999,740 2149.193,772.748 2124.999,837.252 2150,870 2175,837.252 2150.806,772.748 2175,740   2225,740 2249.193,772.748 2225,837.252 2249.999,870 2275,837.252 2250.806,772.748 2275,740 2324.999,740 2349.192,772.748   2324.999,837.252 2349.999,870 2375,837.252 2350.805,772.748 2375,740 2424.999,740 2449.193,772.748 2424.999,837.252 2450,870   2475,837.252 2450.805,772.748 2475,740 2524.999,740 2549.193,772.748 2524.999,837.252 2549.999,870 2575,837.252   2550.805,772.748 2575,740 2625,740 2649.193,772.748 2625,837.252 2650,870 2675,837.252 2650.805,772.748 2675,740 2725,740   2749.193,772.748 2725,837.252 2749.999,870 2775,837.252 2750.806,772.748 2775,740 2824.999,740 2849.193,772.748   2824.999,837.252 2850,870 2875,837.252 2850.805,772.748 2875,740 2924.999,740 2949.193,772.748 2924.999,837.252 2950,870   2975,837.252 2950.806,772.748 2975,740 3025,740 3049.193,772.748 3025,837.252 3049.999,870 3075,837.252 3050.806,772.748   3075,740 3124.999,740 3149.192,772.748 3124.999,837.252 3149.999,870 3175,837.252 3150.805,772.748 3175,740 3200,740 "
   id="polyline4" />
<line
   fill="none"
   stroke="#000000"
   stroke-width="16"
   x1="0"
   y1="200"
   x2="3200"
   y2="200"
   id="line6" />
<line
   fill="none"
   stroke="#000000"
   stroke-width="16"
   x1="0"
   y1="700"
   x2="3200"
   y2="700"
   id="line8" />
<eggbot
   totaldeltay="0"
   totaldeltax="0"
   lastpathnc="0"
   lastpath="0"
   node="0"
   layer="0"
   serialport="" /></svg>