<?xml version="1.0" encoding="UTF-8" standalone="no"?>
<!-- Generator: Adobe Illustrator 14.0.0, SVG Export Plug-In . SVG Version: 6.00 Build 43363)  -->

<svg
   xmlns:dc="http://purl.org/dc/elements/1.1/"
   xmlns:cc="http://creativecommons.org/ns#"
   xmlns:rdf="http://www.w3.org/1999/02/22-rdf-syntax-ns#"
   xmlns:svg="http://www.w3.org/2000/svg"
   xmlns="http://www.w3.org/2000/svg"
   xmlns:sodipodi="http://sodipodi.sourceforge.net/DTD/sodipodi-0.dtd"
   xmlns:inkscape="http://www.inkscape.org/namespaces/inkscape"
   version="1.1"
   id="Layer_1"
   x="0px"
   y="0px"
   width="500px"
   height="125px"
   viewBox="0 0 3200 900"
   enable-background="new 0 0 3200 900"
   xml:space="preserve"
   sodipodi:docname="eggbot_3.svg"
   inkscape:version="0.92.4 (5da689c313, 2019-01-14)"><metadata
   id="metadata23"><rdf:RDF><cc:Work
       rdf:about=""><dc:format>image/svg+xml</dc:format><dc:type
         rdf:resource="http://purl.org/dc/dcmitype/StillImage" /></cc:Work></rdf:RDF></metadata><defs
   id="defs21" /><sodipodi:namedview
   pagecolor="#ffffff"
   bordercolor="#666666"
   borderopacity="1"
   objecttolerance="10"
   gridtolerance="10"
   guidetolerance="10"
   inkscape:pageopacity="0"
   inkscape:pageshadow="2"
   inkscape:window-width="1591"
   inkscape:window-height="775"
   id="namedview19"
   showgrid="false"
   inkscape:zoom="0.2996365"
   inkscape:cx="1464.0256"
   inkscape:cy="651.78161"
   inkscape:window-x="0"
   inkscape:window-y="0"
   inkscape:window-maximized="0"
   inkscape:current-layer="Layer_1" />
<g
   id="g8">
	<g
   id="g6">
		<polyline
   fill="none"
   stroke="#231F20"
   stroke-width="20"
   stroke-miterlimit="10"
   points="3200,245.091 3039.998,245.091     3039.998,121.248 3120.004,121.248 3120.004,162.5 3079.996,162.5 3079.996,203.838 3160,203.838 3160,79.909 2879.996,79.909     2879.996,203.838 2960,203.838 2960,162.5 2920.004,162.5 2920.004,121.248 3000,121.248 3000,245.091 2879.996,245.091     2720.002,245.091 2720.002,121.248 2800,121.248 2800,162.5 2760,162.5 2760,203.838 2839.996,203.838 2839.996,79.909     2560.002,79.909 2560.002,203.838 2639.996,203.838 2639.996,162.5 2599.998,162.5 2599.998,121.248 2679.996,121.248     2679.996,245.091 2560.002,245.091 2400,245.091 2400,121.248 2479.996,121.248 2479.996,162.5 2439.998,162.5 2439.998,203.838     2520.002,203.838 2520.002,79.909 2239.998,79.909 2239.998,203.838 2320.004,203.838 2320.004,162.5 2279.994,162.5     2279.994,121.248 2360.002,121.248 2360.002,245.091 2239.998,245.091 2079.996,245.091 2079.996,121.248 2160,121.248     2160,162.5 2120.004,162.5 2120.004,203.838 2200,203.838 2200,79.909 1920.004,79.909 1920.004,203.838 2000,203.838 2000,162.5     1960,162.5 1960,121.248 2039.996,121.248 2039.996,245.091 1760.002,245.091 1760.002,121.248 1839.998,121.248 1839.998,162.5     1800,162.5 1800,203.838 1879.996,203.838 1879.996,79.909 1600,79.909 1600,203.838 1679.996,203.838 1679.996,162.5     1639.998,162.5 1639.998,121.248 1720.004,121.248 1720.004,245.091 1439.998,245.091 1439.998,121.248 1519.998,121.248     1519.998,162.5 1480,162.5 1480,203.838 1560,203.838 1560,79.909 1280,79.909 1280,203.838 1360,203.838 1360,162.5     1319.998,162.5 1319.998,121.248 1400,121.248 1400,245.091 1119.999,245.091 1119.999,121.248 1199.999,121.248 1199.999,162.5     1160,162.5 1160,203.838 1239.999,203.838 1239.999,79.909 960.001,79.909 960.001,203.838 1039.998,203.838 1039.998,162.5     999.999,162.5 999.999,121.248 1080,121.248 1080,245.091 799.999,245.091 799.999,121.248 880,121.248 880,162.5 839.999,162.5     839.999,203.838 919.999,203.838 919.999,79.909 639.998,79.909 639.998,203.838 719.998,203.838 719.998,162.5 680.001,162.5     680.001,121.248 760.001,121.248 760.001,245.091 480.001,245.091 480.001,121.248 560.001,121.248 560.001,162.5 519.998,162.5     519.998,203.838 600,203.838 600,79.909 319.999,79.909 319.999,203.838 400,203.838 400,162.5 360.001,162.5 360.001,121.248     439.998,121.248 439.998,245.091 160.001,245.091 160.001,121.248 239.997,121.248 239.997,162.5 200,162.5 200,203.838     280.001,203.838 280.001,79.909 0,79.909 0,203.838 80,203.838 80,162.5 39.998,162.5 39.998,121.248 119.999,121.248     119.999,245.091 0,245.091   "
   id="polyline2" />
		<polyline
   fill="none"
   stroke="#231F20"
   stroke-width="20"
   stroke-miterlimit="10"
   points="3209.976,79.909 3200,79.909     3200,203.838 3209.25,203.838   "
   id="polyline4" />
	</g>
</g>
<g
   id="g16">
	<g
   id="g14">
		<polyline
   fill="none"
   stroke="#231F20"
   stroke-width="20"
   stroke-miterlimit="10"
   points="3200,654.908 3039.998,654.908     3039.998,778.752 3120.004,778.752 3120.004,737.5 3079.996,737.5 3079.996,696.162 3160,696.162 3160,820.092 2879.996,820.092     2879.996,696.162 2960,696.162 2960,737.5 2920.004,737.5 2920.004,778.752 3000,778.752 3000,654.908 2879.996,654.908     2720.002,654.908 2720.002,778.752 2800,778.752 2800,737.5 2760,737.5 2760,696.162 2839.996,696.162 2839.996,820.092     2560.002,820.092 2560.002,696.162 2639.996,696.162 2639.996,737.5 2599.998,737.5 2599.998,778.752 2679.996,778.752     2679.996,654.908 2560.002,654.908 2400,654.908 2400,778.752 2479.996,778.752 2479.996,737.5 2439.998,737.5 2439.998,696.162     2520.002,696.162 2520.002,820.092 2239.998,820.092 2239.998,696.162 2320.004,696.162 2320.004,737.5 2279.994,737.5     2279.994,778.752 2360.002,778.752 2360.002,654.908 2239.998,654.908 2079.996,654.908 2079.996,778.752 2160,778.752     2160,737.5 2120.004,737.5 2120.004,696.162 2200,696.162 2200,820.092 1920.004,820.092 1920.004,696.162 2000,696.162     2000,737.5 1960,737.5 1960,778.752 2039.996,778.752 2039.996,654.908 1760.002,654.908 1760.002,778.752 1839.998,778.752     1839.998,737.5 1800,737.5 1800,696.162 1879.996,696.162 1879.996,820.092 1600,820.092 1600,696.162 1679.996,696.162     1679.996,737.5 1639.998,737.5 1639.998,778.752 1720.004,778.752 1720.004,654.908 1439.998,654.908 1439.998,778.752     1519.998,778.752 1519.998,737.5 1480,737.5 1480,696.162 1560,696.162 1560,820.092 1280,820.092 1280,696.162 1360,696.162     1360,737.5 1319.998,737.5 1319.998,778.752 1400,778.752 1400,654.908 1119.999,654.908 1119.999,778.752 1199.999,778.752     1199.999,737.5 1160,737.5 1160,696.162 1239.999,696.162 1239.999,820.092 960.001,820.092 960.001,696.162 1039.998,696.162     1039.998,737.5 999.999,737.5 999.999,778.752 1080,778.752 1080,654.908 799.999,654.908 799.999,778.752 880,778.752 880,737.5     839.999,737.5 839.999,696.162 919.999,696.162 919.999,820.092 639.998,820.092 639.998,696.162 719.998,696.162 719.998,737.5     680.001,737.5 680.001,778.752 760.001,778.752 760.001,654.908 480.001,654.908 480.001,778.752 560.001,778.752 560.001,737.5     519.998,737.5 519.998,696.162 600,696.162 600,820.092 319.999,820.092 319.999,696.162 400,696.162 400,737.5 360.001,737.5     360.001,778.752 439.998,778.752 439.998,654.908 160.001,654.908 160.001,778.752 239.997,778.752 239.997,737.5 200,737.5     200,696.162 280.001,696.162 280.001,820.092 0,820.092 0,696.162 80,696.162 80,737.5 39.998,737.5 39.998,778.752     119.999,778.752 119.999,654.908 0,654.908   "
   id="polyline10" />
		<polyline
   fill="none"
   stroke="#231F20"
   stroke-width="20"
   stroke-miterlimit="10"
   points="3209.976,820.092 3200,820.092     3200,696.162 3209.25,696.162   "
   id="polyline12" />
	</g>
</g>
<eggbot
   totaldeltay="0"
   totaldeltax="0"
   lastpathnc="0"
   lastpath="0"
   node="0"
   layer="0"
   serialport="" /></svg>