<?xml version="1.0" encoding="UTF-8" standalone="no"?>
<!-- Generator: Adobe Illustrator 14.0.0, SVG Export Plug-In . SVG Version: 6.00 Build 43363)  -->

<svg
   xmlns:dc="http://purl.org/dc/elements/1.1/"
   xmlns:cc="http://creativecommons.org/ns#"
   xmlns:rdf="http://www.w3.org/1999/02/22-rdf-syntax-ns#"
   xmlns:svg="http://www.w3.org/2000/svg"
   xmlns="http://www.w3.org/2000/svg"
   xmlns:sodipodi="http://sodipodi.sourceforge.net/DTD/sodipodi-0.dtd"
   xmlns:inkscape="http://www.inkscape.org/namespaces/inkscape"
   version="1.1"
   id="Layer_1"
   x="0px"
   y="0px"
   width="500px"
   height="125px"
   viewBox="0 0 3200 900"
   enable-background="new 0 0 3200 900"
   xml:space="preserve"
   sodipodi:docname="eggbot_1.svg"
   inkscape:version="0.92.4 (5da689c313, 2019-01-14)"><metadata
   id="metadata25"><rdf:RDF><cc:Work
       rdf:about=""><dc:format>image/svg+xml</dc:format><dc:type
         rdf:resource="http://purl.org/dc/dcmitype/StillImage" /></cc:Work></rdf:RDF></metadata><defs
   id="defs23" /><sodipodi:namedview
   pagecolor="#ffffff"
   bordercolor="#666666"
   borderopacity="1"
   objecttolerance="10"
   gridtolerance="10"
   guidetolerance="10"
   inkscape:pageopacity="0"
   inkscape:pageshadow="2"
   inkscape:window-width="1920"
   inkscape:window-height="1001"
   id="namedview21"
   showgrid="false"
   inkscape:zoom="0.2996365"
   inkscape:cx="1741.7511"
   inkscape:cy="434.5257"
   inkscape:window-x="-9"
   inkscape:window-y="-9"
   inkscape:window-maximized="1"
   inkscape:current-layer="Layer_1" />
<g
   id="g8">
	<polyline
   fill="none"
   stroke="#231F20"
   stroke-width="20"
   stroke-miterlimit="10"
   points="3200,119.673 3171.419,148.254    3199.971,176.805 3171.388,205.386 3114.256,148.254 3200,62.511  "
   id="polyline2" />
	<polyline
   fill="none"
   stroke="#231F20"
   stroke-width="20"
   stroke-miterlimit="10"
   points="0,62.511 199.89,262.489    285.634,176.746 228.561,119.673 199.98,148.254 228.531,176.805 199.95,205.386 142.817,148.254 228.561,62.511 428.451,262.401    514.225,176.746 457.151,119.673 428.57,148.254 457.122,176.805 428.541,205.386 371.408,148.254 457.151,62.511 657.042,262.489    742.786,176.746 685.712,119.673 657.131,148.254 685.682,176.805 657.101,205.386 599.969,148.254 685.712,62.511    885.603,262.489 971.346,176.746 914.273,119.673 885.692,148.254 914.243,176.805 885.662,205.386 828.53,148.254 914.273,62.511    1114.164,262.401 1199.937,176.746 1142.864,119.673 1114.282,148.254 1142.834,176.805 1114.253,205.386 1057.12,148.254    1142.864,62.511 1342.754,262.489 1428.498,176.746 1371.425,119.673 1342.843,148.254 1371.394,176.805 1342.813,205.386    1285.68,148.254 1371.425,62.511 1571.315,262.489 1657.058,176.746 1599.986,119.673 1571.403,148.254 1599.955,176.805    1571.374,205.386 1514.242,148.254 1599.986,62.511 1799.877,262.401 1885.649,176.746 1828.576,119.673 1799.995,148.254    1828.545,176.805 1799.965,205.386 1742.832,148.254 1828.576,62.511 2028.467,262.489 2114.211,176.746 2057.135,119.673    2028.554,148.254 2057.106,176.805 2028.526,205.386 1971.393,148.254 2057.135,62.511 2257.026,262.489 2342.77,176.746    2285.697,119.673 2257.116,148.254 2285.668,176.805 2257.086,205.386 2199.953,148.254 2285.697,62.511 2485.588,262.401    2571.362,176.746 2514.289,119.673 2485.706,148.254 2514.258,176.805 2485.677,205.386 2428.545,148.254 2514.289,62.511    2714.177,262.489 2799.922,176.746 2742.848,119.673 2714.267,148.254 2742.819,176.805 2714.237,205.386 2657.104,148.254    2742.848,62.511 2942.739,262.489 3028.483,176.746 2971.41,119.673 2942.829,148.254 2971.379,176.805 2942.799,205.386    2885.666,148.254 2971.41,62.511 3171.301,262.401 3199.988,233.73  "
   id="polyline4" />
	<polyline
   fill="none"
   stroke="#231F20"
   stroke-width="20"
   stroke-miterlimit="10"
   points="0,233.819 57.074,176.746 0,119.673  "
   id="polyline6" />
</g>
<g
   id="g18">
	<g
   id="g16">
		<polyline
   fill="none"
   stroke="#231F20"
   stroke-width="20"
   stroke-miterlimit="10"
   points="3200,694.673 3171.419,723.254     3199.971,751.805 3171.388,780.387 3114.256,723.254 3200,637.511   "
   id="polyline10" />
		<polyline
   fill="none"
   stroke="#231F20"
   stroke-width="20"
   stroke-miterlimit="10"
   points="0,637.511 199.89,837.489     285.634,751.746 228.561,694.673 199.98,723.254 228.531,751.805 199.95,780.387 142.817,723.254 228.561,637.511     428.451,837.401 514.225,751.746 457.151,694.673 428.57,723.254 457.122,751.805 428.541,780.387 371.408,723.254     457.151,637.511 657.042,837.489 742.786,751.746 685.712,694.673 657.131,723.254 685.682,751.805 657.101,780.387     599.969,723.254 685.712,637.511 885.603,837.489 971.346,751.746 914.273,694.673 885.692,723.254 914.243,751.805     885.662,780.387 828.53,723.254 914.273,637.511 1114.164,837.401 1199.937,751.746 1142.864,694.673 1114.282,723.254     1142.834,751.805 1114.253,780.387 1057.12,723.254 1142.864,637.511 1342.754,837.489 1428.498,751.746 1371.425,694.673     1342.843,723.254 1371.394,751.805 1342.813,780.387 1285.68,723.254 1371.425,637.511 1571.315,837.489 1657.058,751.746     1599.986,694.673 1571.403,723.254 1599.955,751.805 1571.374,780.387 1514.242,723.254 1599.986,637.511 1799.877,837.401     1885.649,751.746 1828.576,694.673 1799.995,723.254 1828.545,751.805 1799.965,780.387 1742.832,723.254 1828.576,637.511     2028.467,837.489 2114.211,751.746 2057.135,694.673 2028.554,723.254 2057.106,751.805 2028.526,780.387 1971.393,723.254     2057.135,637.511 2257.026,837.489 2342.77,751.746 2285.697,694.673 2257.116,723.254 2285.668,751.805 2257.086,780.387     2199.953,723.254 2285.697,637.511 2485.588,837.401 2571.362,751.746 2514.289,694.673 2485.706,723.254 2514.258,751.805     2485.677,780.387 2428.545,723.254 2514.289,637.511 2714.177,837.489 2799.922,751.746 2742.848,694.673 2714.267,723.254     2742.819,751.805 2714.237,780.387 2657.104,723.254 2742.848,637.511 2942.739,837.489 3028.483,751.746 2971.41,694.673     2942.829,723.254 2971.379,751.805 2942.799,780.387 2885.666,723.254 2971.41,637.511 3171.301,837.401 3199.988,808.73   "
   id="polyline12" />
		<polyline
   fill="none"
   stroke="#231F20"
   stroke-width="20"
   stroke-miterlimit="10"
   points="0,808.819 57.074,751.746 0,694.673       "
   id="polyline14" />
	</g>
</g>
<eggbot
   totaldeltay="0"
   totaldeltax="0"
   lastpathnc="0"
   lastpath="0"
   node="0"
   layer="0"
   serialport="" /></svg>