<?xml version="1.0" encoding="UTF-8" standalone="no"?>
<!-- Generator: Adobe Illustrator 14.0.0, SVG Export Plug-In . SVG Version: 6.00 Build 43363)  -->

<svg
   xmlns:dc="http://purl.org/dc/elements/1.1/"
   xmlns:cc="http://creativecommons.org/ns#"
   xmlns:rdf="http://www.w3.org/1999/02/22-rdf-syntax-ns#"
   xmlns:svg="http://www.w3.org/2000/svg"
   xmlns="http://www.w3.org/2000/svg"
   xmlns:sodipodi="http://sodipodi.sourceforge.net/DTD/sodipodi-0.dtd"
   xmlns:inkscape="http://www.inkscape.org/namespaces/inkscape"
   version="1.1"
   id="Layer_1"
   x="0px"
   y="0px"
   width="500px"
   height="125px"
   viewBox="0 0 3200 900"
   enable-background="new 0 0 3200 900"
   xml:space="preserve"
   sodipodi:docname="eggbot_2.svg"
   inkscape:version="0.92.4 (5da689c313, 2019-01-14)"><metadata
   id="metadata17"><rdf:RDF><cc:Work
       rdf:about=""><dc:format>image/svg+xml</dc:format><dc:type
         rdf:resource="http://purl.org/dc/dcmitype/StillImage" /></cc:Work></rdf:RDF></metadata><defs
   id="defs15" /><sodipodi:namedview
   pagecolor="#ffffff"
   bordercolor="#666666"
   borderopacity="1"
   objecttolerance="10"
   gridtolerance="10"
   guidetolerance="10"
   inkscape:pageopacity="0"
   inkscape:pageshadow="2"
   inkscape:window-width="1920"
   inkscape:window-height="1001"
   id="namedview13"
   showgrid="false"
   inkscape:zoom="0.2996365"
   inkscape:cx="1749.9917"
   inkscape:cy="338.92562"
   inkscape:window-x="-9"
   inkscape:window-y="-9"
   inkscape:window-maximized="1"
   inkscape:current-layer="Layer_1" />
<g
   id="g4">
	<polyline
   fill="none"
   stroke="#231F20"
   stroke-width="20"
   points="3200,82.5 3059.122,82.5 3059.122,197.943 3163.822,197.943    3163.822,242.5 2912.543,242.5 2912.543,197.943 3017.243,197.943 3017.243,82.5 2739.313,82.5 2739.313,197.943 2844.012,197.943    2844.012,242.5 2592.734,242.5 2592.734,197.943 2697.433,197.943 2697.433,82.5 2419.505,82.5 2419.505,197.943 2524.204,197.943    2524.204,242.5 2272.926,242.5 2272.926,197.943 2377.625,197.943 2377.625,82.5 2099.696,82.5 2099.696,197.943 2204.395,197.943    2204.395,242.5 1953.117,242.5 1953.117,197.943 2057.816,197.943 2057.816,82.5 1779.887,82.5 1779.887,197.943 1884.587,197.943    1884.587,242.5 1633.308,242.5 1633.308,197.943 1738.008,197.943 1738.008,82.5 1460.079,82.5 1460.079,197.943 1564.778,197.943    1564.778,242.5 1313.5,242.5 1313.5,197.943 1418.199,197.943 1418.199,82.5 1140.27,82.5 1140.27,197.943 1244.969,197.943    1244.969,242.5 993.691,242.5 993.691,197.943 1098.39,197.943 1098.39,82.5 820.461,82.5 820.461,197.943 925.16,197.943    925.16,242.5 673.883,242.5 673.883,197.943 778.582,197.943 778.582,82.5 500.653,82.5 500.653,197.943 605.352,197.943    605.352,242.5 354.073,242.5 354.073,197.943 458.773,197.943 458.773,82.5 180.844,82.5 180.844,197.943 285.543,197.943    285.543,242.5 34.265,242.5 34.265,197.943 138.964,197.943 138.964,82.5 0,82.5  "
   id="polyline2" />
</g>
<g
   id="g10">
	<g
   id="g8">
		<polyline
   fill="none"
   stroke="#231F20"
   stroke-width="20"
   points="3200,817.5 3059.122,817.5 3059.122,702.057 3163.822,702.057     3163.822,657.5 2912.543,657.5 2912.543,702.057 3017.243,702.057 3017.243,817.5 2739.313,817.5 2739.313,702.057     2844.012,702.057 2844.012,657.5 2592.734,657.5 2592.734,702.057 2697.433,702.057 2697.433,817.5 2419.505,817.5     2419.505,702.057 2524.204,702.057 2524.204,657.5 2272.926,657.5 2272.926,702.057 2377.625,702.057 2377.625,817.5     2099.696,817.5 2099.696,702.057 2204.395,702.057 2204.395,657.5 1953.117,657.5 1953.117,702.057 2057.816,702.057     2057.816,817.5 1779.887,817.5 1779.887,702.057 1884.587,702.057 1884.587,657.5 1633.308,657.5 1633.308,702.057     1738.008,702.057 1738.008,817.5 1460.079,817.5 1460.079,702.057 1564.778,702.057 1564.778,657.5 1313.5,657.5 1313.5,702.057     1418.199,702.057 1418.199,817.5 1140.27,817.5 1140.27,702.057 1244.969,702.057 1244.969,657.5 993.691,657.5 993.691,702.057     1098.39,702.057 1098.39,817.5 820.461,817.5 820.461,702.057 925.16,702.057 925.16,657.5 673.883,657.5 673.883,702.057     778.582,702.057 778.582,817.5 500.653,817.5 500.653,702.057 605.352,702.057 605.352,657.5 354.073,657.5 354.073,702.057     458.773,702.057 458.773,817.5 180.844,817.5 180.844,702.057 285.543,702.057 285.543,657.5 34.265,657.5 34.265,702.057     138.964,702.057 138.964,817.5 0,817.5   "
   id="polyline6" />
	</g>
</g>
<eggbot
   totaldeltay="0"
   totaldeltax="0"
   lastpathnc="0"
   lastpath="0"
   node="0"
   layer="0"
   serialport="" /></svg>